    <!-- <svg xmlns="http://www.w3.org/2000/svg" viewBox="0 0 1440 320"><path fill="#ee5964" fill-opacity="1" d="M0,256L60,240C120,224,240,192,360,181.3C480,171,600,181,720,192C840,203,960,213,1080,213.3C1200,213,1320,203,1380,197.3L1440,192L1440,320L1380,320C1320,320,1200,320,1080,320C960,320,840,320,720,320C600,320,480,320,360,320C240,320,120,320,60,320L0,320Z"></path></svg> -->


<svg xmlns="http://www.w3.org/2000/svg" viewBox="0 0 1440 320">
  <defs>
    <linearGradient id="gradient2" x1="0%" y1="0%" x2="100%" y2="0%">
      <stop offset="0%" stop-color="rgba(255,137,217,1)" />
      <stop offset="50%" stop-color="rgba(215,0,120,1)" />
      <stop offset="100%" stop-color="rgba(255,76,123,1)" />
    </linearGradient>
  </defs>
  <path fill="url(#gradient2)" fill-opacity="1" d="M0,256L60,240C120,224,240,192,360,181.3C480,171,600,181,720,192C840,203,960,213,1080,213.3C1200,213,1320,203,1380,197.3L1440,192L1440,320L1380,320C1320,320,1200,320,1080,320C960,320,840,320,720,320C600,320,480,320,360,320C240,320,120,320,60,320L0,320Z" />
</svg>
